<?xml version="1.0" encoding="UTF-8" standalone="no"?>
<!-- Generator: Adobe Illustrator 16.0.0, SVG Export Plug-In . SVG Version: 6.00 Build 0)  -->

<svg
   xmlns:dc="http://purl.org/dc/elements/1.1/"
   xmlns:cc="http://creativecommons.org/ns#"
   xmlns:rdf="http://www.w3.org/1999/02/22-rdf-syntax-ns#"
   xmlns:svg="http://www.w3.org/2000/svg"
   xmlns="http://www.w3.org/2000/svg"
   xmlns:xlink="http://www.w3.org/1999/xlink"
   xmlns:sodipodi="http://sodipodi.sourceforge.net/DTD/sodipodi-0.dtd"
   xmlns:inkscape="http://www.inkscape.org/namespaces/inkscape"
   version="1.1"
   x="0px"
   y="0px"
   width="792px"
   height="612px"
   viewBox="0 0 792 612"
   enable-background="new 0 0 792 612"
   xml:space="preserve"
   id="svg11537"
   sodipodi:docname="tree-is.svg"
   inkscape:version="0.92.1 r"><metadata
     id="metadata11543"><rdf:RDF><cc:Work
         rdf:about=""><dc:format>image/svg+xml</dc:format><dc:type
           rdf:resource="http://purl.org/dc/dcmitype/StillImage" /></cc:Work></rdf:RDF></metadata><defs
     id="defs11541" /><sodipodi:namedview
     pagecolor="#ffffff"
     bordercolor="#666666"
     borderopacity="1"
     objecttolerance="10"
     gridtolerance="10"
     guidetolerance="10"
     inkscape:pageopacity="0"
     inkscape:pageshadow="2"
     inkscape:window-width="3834"
     inkscape:window-height="2103"
     id="namedview11539"
     showgrid="false"
     inkscape:zoom="2.1814013"
     inkscape:cx="348.88093"
     inkscape:cy="269.80208"
     inkscape:window-x="0"
     inkscape:window-y="26"
     inkscape:window-maximized="0"
     inkscape:current-layer="svg11537" /><g
     id="Layer_1"
     display="none" /><g
     id="Layer_2"
     display="none"><image
       display="inline"
       overflow="visible"
       opacity="0.5"
       width="1212"
       height="1422"
       transform="matrix(0.6056 0 0 0.3545 29 62.9819)"
       id="image11396" /></g><g
     id="Layer_3"
     display="none"><g
       id="U6idMV_1_"
       display="inline"
       opacity="0.7"><image
         overflow="visible"
         width="696"
         height="512"
         id="U6idMV"
         transform="matrix(1.0603 0 0 1.0603 25 33.0806)" /></g></g><g
     id="Layer_4"
     transform="matrix(1.1,0,0,1.1,-51.557135,-15.072197)"><g
       id="XMLID_1_"><g
         id="g11432"><path
           d="m 162.04,292.32 c 3.73,21.92 38.01,46.28 63.51,50.75 3.64,4.5 7.66,9.109 12.08,13.71 -3.2,0.56 -8.37,-0.431 -14.27,-2.4 -3.48,-1.149 -7.21,-2.66 -10.94,-4.38 -8,-3.7 -15.98,-8.42 -21.46,-13.02 -11.66,-10.44 -29.17,-26.58 -28.92,-44.66 z"
           id="path11402"
           inkscape:connector-curvature="0"
           style="fill:#603913" /><path
           d="m 237.63,356.78 c -4.42,-4.601 -8.44,-9.21 -12.08,-13.71 -11.6,-14.32 -19.4,-27.58 -24.05,-36.57 -6.97,-12.87 -17.2,-42.23 -17.51,-75.5 -0.06,-5.67 0.18,-11.46 0.77,-17.31 2.4,-23.78 10.67,-48.42 29.24,-69.69 -13.01,30.05 -17.64,57.44 -16.17,82.03 0.36,5.96 1.07,11.75 2.11,17.38 17.83,96.56 131.49,143.899 176.58,130.83 -5.56,14.689 -11.34,29.319 -16.52,44 -57.04,-7.23 -96.49,-34.43 -122.37,-61.46 z"
           id="path11404"
           inkscape:connector-curvature="0"
           style="fill:#603913" /><path
           d="m 568.07,316.78 c 0.649,-0.261 1.29,-0.521 1.93,-0.78 4.96,-2.17 9.62,-4.36 14.04,-6.63 15.72,21.93 52,24.17 74.88,-8.94 l 0.061,0.02 c -8.65,20.45 -20.4,30.56 -37.28,32.55 -17.471,1.34 -46.451,-7 -53.631,-16.22 z"
           id="path11406"
           inkscape:connector-curvature="0"
           style="fill:#603913" /><path
           d="M 550.87,301.68 C 583.18,289.92 612.48,273.93 630,243 c 9,-16 8.1,-30.52 5,-48.5 -3.5,-20.33 -21.42,-43.4 -39,-56.34 18.22,8.86 30.94,22.54 39.05,37.84 4.57,8.62 7.681,17.75 9.47,26.83 v 0.01 c 0.19,0.95 0.37,1.89 0.521,2.84 0.29,3.14 0.64,5.72 0.99,7.57 1.5,16.34 -1.17,31.76 -7.03,42.75 -14.37,26.2 -30.88,40.97 -54.96,53.37 -4.42,2.27 -9.08,4.46 -14.04,6.63 -0.64,0.26 -1.28,0.52 -1.93,0.78 C 519.36,336.35 457.62,349.65 429,399 407.13,435.79 401.07,528.92 448.18,551.61 L 448,552 c -13,6 -97,24 -100,-8 -12.21,-43.76 -2.42,-84.94 12,-125.76 5.18,-14.681 10.96,-29.311 16.52,-44 9.39,-24.75 18.17,-49.66 22.48,-75.24 0.68,-4.23 1.43,-9.32 2.14,-15 0.58,-4.65 1.13,-9.7 1.601,-15 2.77,-31.23 2.66,-71.3 -12.01,-90.92 l -0.01,-0.01 c -19.87,-14.02 -58.95,-16.27 -50.12,-91.57 1.87,70.5 36.9,66 51.9,81 -6,-20 5.98,-71.5 19.98,-89.5 -10.381,37.02 -12.671,60.84 -11.561,77.34 0.49,7.32 1.65,13.2 3.08,18.16 v 0.01 c 2.21,7.71 5.06,13.19 7,18.36 4.66,13.39 13.67,45.02 16.46,83.99 0.28,3.94 0.5,7.96 0.64,12.04 0.761,21.06 -0.479,43.831 -5.21,66.74 30.29,-26.229 75.4,-35.26 117.21,-49.22 3.62,-1.2 7.21,-2.45 10.77,-3.74 z"
           id="path11408"
           inkscape:connector-curvature="0"
           style="fill:#603913" /><path
           d="m 645.04,205.68 c 0.44,2.54 0.76,5.06 0.99,7.57 -0.35,-1.85 -0.7,-4.43 -0.99,-7.57 z"
           id="path11410"
           inkscape:connector-curvature="0"
           style="fill:#603913" /><path
           d="m 644.43,186.5 c -0.12,5.91 0.04,11.31 0.351,15.84 -0.09,0.16 -0.17,0.33 -0.261,0.49 -1.789,-9.08 -4.899,-18.21 -9.47,-26.83 2,2 -1.72,-38.17 30.95,-61 -16.53,17.95 -21.13,48.57 -21.57,71.5 z"
           id="path11412"
           inkscape:connector-curvature="0"
           style="fill:#603913" /><path
           d="m 706.5,157 c -26.7,1.12 -48.68,19.76 -61.72,45.34 -0.311,-4.53 -0.471,-9.93 -0.351,-15.84 h 0.271 c 13.07,-19.34 31.97,-34.49 61.8,-29.5 z"
           id="path11414"
           inkscape:connector-curvature="0"
           style="fill:#603913" /><path
           d="m 644.78,202.34 c 0.08,1.18 0.17,2.29 0.26,3.34 -0.15,-0.95 -0.33,-1.89 -0.521,-2.84 v -0.01 c 0.091,-0.16 0.171,-0.33 0.261,-0.49 z"
           id="path11416"
           inkscape:connector-curvature="0"
           style="fill:#603913" /><path
           d="m 594.15,248.38 c -26.36,17.94 -29.98,25.45 -43.28,53.3 -3.561,1.29 -7.15,2.54 -10.771,3.74 10.321,-34.19 30.931,-52.93 54.051,-57.04 z"
           id="path11418"
           inkscape:connector-curvature="0"
           style="fill:#603913" /><path
           d="m 458.33,224.33 c 4,21.97 -2.98,38.31 -30.23,63.57 -0.14,-4.08 -0.359,-8.1 -0.64,-12.04 17.77,-11.71 32.41,-31.52 30.87,-51.53 z"
           id="path11420"
           inkscape:connector-curvature="0"
           style="fill:#603913" /><path
           d="m 475.67,86.5 c -18.17,40.5 -61.83,38 -71.67,87 -1.43,-4.96 -2.59,-10.84 -3.08,-18.16 12.13,-32.93 56.58,-42.16 74.75,-68.84 z"
           id="path11422"
           inkscape:connector-curvature="0"
           style="fill:#603913" /><path
           d="m 402.74,269 c -0.471,5.3 -1.021,10.35 -1.601,15 -21,-17 -30.81,-39.67 -20.81,-59.67 -6.999,14 5.411,35.67 22.411,44.67 z"
           id="path11424"
           inkscape:connector-curvature="0"
           style="fill:#603913" /><path
           d="m 256,167.5 c 5.67,27.83 -8.67,55 -56.06,75.91 -1.04,-5.63 -1.75,-11.42 -2.11,-17.38 h 0.01 C 244.67,216.33 255,181.5 256,167.5 Z"
           id="path11426"
           inkscape:connector-curvature="0"
           style="fill:#603913" /><path
           d="m 212.42,350 c 3.73,1.72 7.46,3.23 10.94,4.38 -24.32,15.43 -52.33,13.24 -76.33,-0.21 33.24,7.14 38.8,4.54 65.39,-4.17 z"
           id="path11428"
           inkscape:connector-curvature="0"
           style="fill:#603913" /><path
           d="m 184.76,213.69 c -0.59,5.85 -0.83,11.64 -0.77,17.31 -14,-29 -70.99,-34.24 -58.99,-81.67 -3.64,40.03 40.47,39.23 59.76,64.36 z"
           id="path11430"
           inkscape:connector-curvature="0"
           style="fill:#603913" /></g><g
         id="g11496"><path
           stroke-miterlimit="10"
           d="m 340.6,86.5 c 1.87,70.5 36.9,66 51.9,81"
           id="path11434"
           inkscape:connector-curvature="0"
           style="fill:none;stroke:#603913;stroke-miterlimit:10" /><path
           stroke-miterlimit="10"
           d="m 390.73,178.08 c 0.61,0.43 1.2,0.87 1.77,1.32"
           id="path11436"
           inkscape:connector-curvature="0"
           style="fill:none;stroke:#603913;stroke-miterlimit:10" /><path
           stroke-miterlimit="10"
           d="m 340.6,86.5 c -8.83,75.3 30.25,77.55 50.12,91.57"
           id="path11438"
           inkscape:connector-curvature="0"
           style="fill:none;stroke:#603913;stroke-miterlimit:10" /><path
           stroke-miterlimit="10"
           d="m 392.5,167.5 c -6,-20 5.98,-71.5 19.98,-89.5"
           id="path11440"
           inkscape:connector-curvature="0"
           style="fill:none;stroke:#603913;stroke-miterlimit:10" /><path
           stroke-miterlimit="10"
           d="m 404,173.51 c 2.21,7.71 5.06,13.19 7,18.36 4.66,13.39 13.67,45.02 16.46,83.99 0.28,3.94 0.5,7.96 0.64,12.04 0.761,21.06 -0.479,43.831 -5.21,66.74 -0.84,4.12 -1.81,8.24 -2.89,12.36"
           id="path11442"
           inkscape:connector-curvature="0"
           style="fill:none;stroke:#603913;stroke-miterlimit:10" /><path
           stroke-miterlimit="10"
           d="m 412.48,78 c -10.381,37.02 -12.671,60.84 -11.561,77.34 0.49,7.32 1.65,13.2 3.08,18.16"
           id="path11444"
           inkscape:connector-curvature="0"
           style="fill:none;stroke:#603913;stroke-miterlimit:10" /><path
           stroke-miterlimit="10"
           d="m 348,544 c -12.21,-43.76 -2.42,-84.94 12,-125.76 5.18,-14.681 10.96,-29.311 16.52,-44 9.39,-24.75 18.17,-49.66 22.48,-75.24 0.68,-4.23 1.43,-9.32 2.14,-15 0.58,-4.65 1.13,-9.7 1.601,-15 2.77,-31.23 2.66,-71.3 -12.01,-90.92 l -0.01,-0.01 c -2.1,-2.8 -4.49,-5.19 -7.22,-7.07"
           id="path11446"
           inkscape:connector-curvature="0"
           style="fill:none;stroke:#603913;stroke-miterlimit:10" /><path
           stroke-miterlimit="10"
           d="m 400.66,156.04 c 0.08,-0.23 0.17,-0.47 0.26,-0.7 12.13,-32.93 56.58,-42.16 74.75,-68.84"
           id="path11448"
           inkscape:connector-curvature="0"
           style="fill:none;stroke:#603913;stroke-miterlimit:10" /><path
           stroke-miterlimit="10"
           d="m 404,173.51 v -0.01 c 9.84,-49 53.5,-46.5 71.67,-87"
           id="path11450"
           inkscape:connector-curvature="0"
           style="fill:none;stroke:#603913;stroke-miterlimit:10" /><path
           stroke-miterlimit="10"
           d="m 404.14,376.37 c 5.261,-8.4 11.591,-15.55 18.75,-21.73 30.29,-26.229 75.4,-35.26 117.21,-49.22 3.62,-1.2 7.21,-2.45 10.771,-3.74 32.31,-11.76 61.61,-27.75 79.13,-58.68 9,-16 8.1,-30.52 5,-48.5 -3.5,-20.33 -21.42,-43.4 -39,-56.34"
           id="path11452"
           inkscape:connector-curvature="0"
           style="fill:none;stroke:#603913;stroke-miterlimit:10" /><path
           stroke-miterlimit="10"
           d="M 644.52,202.83 C 642.731,193.75 639.621,184.62 635.05,176 626.941,160.7 614.22,147.02 596,138.16"
           id="path11454"
           inkscape:connector-curvature="0"
           style="fill:none;stroke:#603913;stroke-miterlimit:10" /><path
           stroke-miterlimit="10"
           d="m 449,552 c -0.28,-0.13 -0.55,-0.26 -0.82,-0.39 C 401.07,528.92 407.13,435.79 429,399 c 28.62,-49.35 90.36,-62.65 139.07,-82.22 0.649,-0.261 1.29,-0.521 1.93,-0.78 4.96,-2.17 9.62,-4.36 14.04,-6.63 24.08,-12.4 40.59,-27.17 54.96,-53.37 5.86,-10.99 8.53,-26.41 7.03,-42.75 -0.23,-2.51 -0.55,-5.03 -0.99,-7.57 -0.15,-0.95 -0.33,-1.89 -0.521,-2.84"
           id="path11456"
           inkscape:connector-curvature="0"
           style="fill:none;stroke:#603913;stroke-miterlimit:10" /><path
           stroke-miterlimit="10"
           d="m 635.05,176 c 2,2 -1.72,-38.17 30.95,-61"
           id="path11458"
           inkscape:connector-curvature="0"
           style="fill:none;stroke:#603913;stroke-miterlimit:10" /><path
           stroke-miterlimit="10"
           d="m 646.03,213.25 c -0.351,-1.85 -0.7,-4.43 -0.99,-7.57 -0.09,-1.05 -0.18,-2.16 -0.26,-3.34 -0.311,-4.53 -0.471,-9.93 -0.351,-15.84 0.44,-22.93 5.04,-53.55 21.57,-71.5"
           id="path11460"
           inkscape:connector-curvature="0"
           style="fill:none;stroke:#603913;stroke-miterlimit:10" /><path
           stroke-miterlimit="10"
           d="m 644.52,202.84 v -0.01 c 0.091,-0.16 0.171,-0.33 0.261,-0.49 13.04,-25.58 35.02,-44.22 61.72,-45.34"
           id="path11462"
           inkscape:connector-curvature="0"
           style="fill:none;stroke:#603913;stroke-miterlimit:10" /><path
           stroke-miterlimit="10"
           d="m 644.7,186.5 c 13.069,-19.34 31.97,-34.49 61.8,-29.5"
           id="path11464"
           inkscape:connector-curvature="0"
           style="fill:none;stroke:#603913;stroke-miterlimit:10" /><path
           stroke-miterlimit="10"
           d="m 214,144 c -13.01,30.05 -17.64,57.44 -16.17,82.03 0.36,5.96 1.07,11.75 2.11,17.38 17.83,96.56 131.49,143.899 176.58,130.83 0.62,-0.181 1.23,-0.37 1.82,-0.57"
           id="path11466"
           inkscape:connector-curvature="0"
           style="fill:none;stroke:#603913;stroke-miterlimit:10" /><path
           stroke-miterlimit="10"
           d="m 214,144 c -18.57,21.27 -26.84,45.91 -29.24,69.69 -0.59,5.85 -0.83,11.64 -0.77,17.31 0.31,33.27 10.54,62.63 17.51,75.5 4.65,8.99 12.45,22.25 24.05,36.57 3.64,4.5 7.66,9.109 12.08,13.71 25.88,27.029 65.33,54.229 122.37,61.46 2.16,0.279 4.34,0.52 6.55,0.74"
           id="path11468"
           inkscape:connector-curvature="0"
           style="fill:none;stroke:#603913;stroke-miterlimit:10" /><path
           stroke-miterlimit="10"
           d="m 189.69,222 c -1.35,-3.07 -3.02,-5.82 -4.93,-8.31 -19.29,-25.13 -63.4,-24.33 -59.76,-64.36"
           id="path11470"
           inkscape:connector-curvature="0"
           style="fill:none;stroke:#603913;stroke-miterlimit:10" /><path
           stroke-miterlimit="10"
           d="M 125,149.33 C 113,196.76 169.99,202 183.99,231"
           id="path11472"
           inkscape:connector-curvature="0"
           style="fill:none;stroke:#603913;stroke-miterlimit:10" /><path
           stroke-miterlimit="10"
           d="M 197.84,226.03 C 244.67,216.33 255,181.5 256,167.5"
           id="path11474"
           inkscape:connector-curvature="0"
           style="fill:none;stroke:#603913;stroke-miterlimit:10" /><path
           stroke-miterlimit="10"
           d="m 256,167.5 c 5.67,27.83 -8.67,55 -56.06,75.91"
           id="path11476"
           inkscape:connector-curvature="0"
           style="fill:none;stroke:#603913;stroke-miterlimit:10" /><path
           stroke-miterlimit="10"
           d="m 581.88,306 c 0.67,1.17 1.39,2.29 2.16,3.37 15.72,21.93 52,24.17 74.88,-8.94"
           id="path11478"
           inkscape:connector-curvature="0"
           style="fill:none;stroke:#603913;stroke-miterlimit:10" /><path
           stroke-miterlimit="10"
           d="m 567.39,315.78 c 0.2,0.33 0.431,0.67 0.681,1 7.18,9.22 36.16,17.56 53.63,16.22 16.88,-1.99 28.63,-12.1 37.28,-32.55 0.06,-0.15 0.13,-0.3 0.189,-0.45"
           id="path11480"
           inkscape:connector-curvature="0"
           style="fill:none;stroke:#603913;stroke-miterlimit:10" /><path
           stroke-miterlimit="10"
           d="m 538.8,310.01 c 0.41,-1.56 0.851,-3.09 1.3,-4.59 10.32,-34.19 30.931,-52.93 54.051,-57.04"
           id="path11482"
           inkscape:connector-curvature="0"
           style="fill:none;stroke:#603913;stroke-miterlimit:10" /><path
           stroke-miterlimit="10"
           d="m 548.62,306.39 c 0.78,-1.63 1.53,-3.2 2.25,-4.71 13.3,-27.85 16.92,-35.36 43.28,-53.3"
           id="path11484"
           inkscape:connector-curvature="0"
           style="fill:none;stroke:#603913;stroke-miterlimit:10" /><path
           stroke-miterlimit="10"
           d="m 410,313 c 1,-12 9.7,-17.31 18,-25 0.03,-0.03 0.07,-0.06 0.1,-0.1 27.25,-25.26 34.23,-41.6 30.23,-63.57"
           id="path11486"
           inkscape:connector-curvature="0"
           style="fill:none;stroke:#603913;stroke-miterlimit:10" /><path
           stroke-miterlimit="10"
           d="m 411,284 c 5.53,-1.84 11.14,-4.63 16.46,-8.14 17.771,-11.71 32.41,-31.52 30.87,-51.53"
           id="path11488"
           inkscape:connector-curvature="0"
           style="fill:none;stroke:#603913;stroke-miterlimit:10" /><path
           stroke-miterlimit="10"
           d="m 402.74,269 c -17,-9 -29.41,-30.67 -22.41,-44.67"
           id="path11490"
           inkscape:connector-curvature="0"
           style="fill:none;stroke:#603913;stroke-miterlimit:10" /><path
           stroke-miterlimit="10"
           d="m 401.14,284 c -21,-17 -30.81,-39.67 -20.81,-59.67"
           id="path11492"
           inkscape:connector-curvature="0"
           style="fill:none;stroke:#603913;stroke-miterlimit:10" /><path
           stroke-miterlimit="10"
           d="m 348,544 c 3,32 87,14 100,8"
           id="path11494"
           inkscape:connector-curvature="0"
           style="fill:none;stroke:#603913;stroke-miterlimit:10" /></g></g></g><g
     id="Layer_5"
     display="none"><path
       display="inline"
       fill="#A7A9AC"
       d="M141.181,149.164c0,7.247-5.874,13.121-13.121,13.121h-22.004   c-7.247,0-13.121-5.875-13.121-13.121V127.16c0-7.247,5.875-13.121,13.121-13.121h22.004c7.247,0,13.121,5.875,13.121,13.121   V149.164z"
       id="path11500" /><path
       display="inline"
       fill="#A7A9AC"
       d="M221.693,149.164c0,7.247-5.874,13.121-13.121,13.121h-22.004   c-7.247,0-13.121-5.875-13.121-13.121V127.16c0-7.247,5.875-13.121,13.121-13.121h22.004c7.247,0,13.121,5.875,13.121,13.121   V149.164z"
       id="path11502" /><path
       display="inline"
       fill="#A7A9AC"
       d="M287.957,160.335c0,7.247-5.874,13.121-13.121,13.121h-22.004   c-7.247,0-13.121-5.875-13.121-13.121v-22.004c0-7.247,5.875-13.121,13.121-13.121h22.004c7.247,0,13.121,5.875,13.121,13.121   V160.335z"
       id="path11504" /><path
       display="inline"
       fill="#A7A9AC"
       d="M363.447,83.335c0,7.247-5.874,13.121-13.121,13.121h-22.004   c-7.247,0-13.121-5.875-13.121-13.121V61.332c0-7.247,5.875-13.121,13.121-13.121h22.004c7.247,0,13.121,5.875,13.121,13.121   V83.335z"
       id="path11506" /><path
       display="inline"
       fill="#A7A9AC"
       d="M428.264,83.335c0,7.247-5.873,13.121-13.121,13.121h-22.003   c-7.247,0-13.121-5.875-13.121-13.121V61.332c0-7.247,5.875-13.121,13.121-13.121h22.003c7.248,0,13.121,5.875,13.121,13.121   V83.335z"
       id="path11508" /><path
       display="inline"
       fill="#A7A9AC"
       d="M499.79,83.335c0,7.247-5.873,13.121-13.121,13.121h-22.003   c-7.247,0-13.121-5.875-13.121-13.121V61.332c0-7.247,5.874-13.121,13.121-13.121h22.003c7.248,0,13.121,5.875,13.121,13.121   V83.335z"
       id="path11510" /><path
       display="inline"
       fill="#A7A9AC"
       d="M606.007,133.752c0,7.247-5.873,13.121-13.121,13.121h-22.003   c-7.247,0-13.121-5.875-13.121-13.121v-22.004c0-7.247,5.874-13.121,13.121-13.121h22.003c7.248,0,13.121,5.875,13.121,13.121   V133.752z"
       id="path11512" /><path
       display="inline"
       fill="#A7A9AC"
       d="M683.292,121.625c0,7.247-5.873,13.121-13.121,13.121h-22.003   c-7.247,0-13.121-5.875-13.121-13.121V99.621c0-7.247,5.874-13.121,13.121-13.121h22.003c7.248,0,13.121,5.875,13.121,13.121   V121.625z"
       id="path11514" /><path
       display="inline"
       fill="#A7A9AC"
       d="M740.292,149.164c0,7.247-5.873,13.121-13.121,13.121h-22.003   c-7.247,0-13.121-5.875-13.121-13.121V127.16c0-7.247,5.874-13.121,13.121-13.121h22.003c7.248,0,13.121,5.875,13.121,13.121   V149.164z"
       id="path11516" /><path
       display="inline"
       fill="#A7A9AC"
       d="M674.646,302.63c0,7.246-5.873,13.121-13.121,13.121h-22.003   c-7.247,0-13.121-5.875-13.121-13.121v-22.004c0-7.247,5.874-13.121,13.121-13.121h22.003c7.248,0,13.121,5.875,13.121,13.121   V302.63z"
       id="path11518" /><path
       display="inline"
       fill="#A7A9AC"
       d="M606.007,261.154c0,7.246-5.873,13.121-13.121,13.121h-22.003   c-7.247,0-13.121-5.875-13.121-13.121V239.15c0-7.247,5.874-13.121,13.121-13.121h22.003c7.248,0,13.121,5.874,13.121,13.121   V261.154z"
       id="path11520" /><path
       display="inline"
       fill="#A7A9AC"
       d="M387.569,237.031c0,7.246-5.873,13.121-13.121,13.121h-22.003   c-7.247,0-13.121-5.875-13.121-13.121v-22.004c0-7.247,5.874-13.121,13.121-13.121h22.003c7.248,0,13.121,5.874,13.121,13.121   V237.031z"
       id="path11522" /><path
       display="inline"
       fill="#A7A9AC"
       d="M475.667,233.502c0,7.246-5.873,13.121-13.121,13.121h-22.003   c-7.247,0-13.121-5.875-13.121-13.121v-22.004c0-7.247,5.874-13.121,13.121-13.121h22.003c7.248,0,13.121,5.874,13.121,13.121   V233.502z"
       id="path11524" /><path
       display="inline"
       fill="#A7A9AC"
       d="M151.167,346.212c0,7.246-5.873,13.121-13.121,13.121h-22.003   c-7.247,0-13.121-5.875-13.121-13.121v-22.004c0-7.247,5.874-13.121,13.121-13.121h22.003c7.248,0,13.121,5.874,13.121,13.121   V346.212z"
       id="path11526" /><path
       display="inline"
       fill="#A7A9AC"
       d="M208.099,308.879c0,7.246-5.873,13.121-13.121,13.121h-22.003   c-7.247,0-13.121-5.875-13.121-13.121v-22.004c0-7.247,5.874-13.121,13.121-13.121h22.003c7.248,0,13.121,5.874,13.121,13.121   V308.879z"
       id="path11528" /><path
       display="inline"
       fill="#A7A9AC"
       d="M348,373.002c0,7.246-5.873,13.121-13.121,13.121h-22.003   c-7.247,0-13.121-5.875-13.121-13.121v-22.004c0-7.247,5.874-13.121,13.121-13.121h22.003c7.248,0,13.121,5.874,13.121,13.121   V373.002z"
       id="path11530" /><path
       display="inline"
       fill="#A7A9AC"
       d="M416.623,346.212c0,7.246-5.873,13.121-13.121,13.121h-22.003   c-7.247,0-13.121-5.875-13.121-13.121v-22.004c0-7.247,5.874-13.121,13.121-13.121h22.003c7.248,0,13.121,5.874,13.121,13.121   V346.212z"
       id="path11532" /><path
       display="inline"
       fill="#A7A9AC"
       d="M483.497,382.584c0,7.246-5.873,13.121-13.121,13.121h-22.003   c-7.247,0-13.121-5.875-13.121-13.121V360.58c0-7.247,5.874-13.121,13.121-13.121h22.003c7.248,0,13.121,5.874,13.121,13.121   V382.584z"
       id="path11534" /></g></svg>
